<?xml version="1.0" encoding="utf-8"?>
<!-- Generator: Adobe Illustrator 27.2.0, SVG Export Plug-In . SVG Version: 6.00 Build 0)  -->
<svg version="1.1" id="Layer_1" xmlns="http://www.w3.org/2000/svg" xmlns:xlink="http://www.w3.org/1999/xlink" x="0px" y="0px"
	 viewBox="0 0 640 360" enable-background="new 0 0 640 360" xml:space="preserve" width="640" height="360">
<rect y="185.47" fill="#96C172" width="640" height="174.53"/>
<rect y="113.26" fill="#96C172" width="640" height="27.82"/>
<rect y="141.09" fill="#CCCCCC" width="640" height="44.38"/>
<rect fill="#87DCF9" width="640" height="113.26"/>
<ellipse fill="#BFBFBF" cx="114.84" cy="155.11" rx="83.79" ry="5.91"/>
<path fill="#754C24" d="M177.66,130.65h-16.14v-4.55h9.9v-6.6h-9.9v-4.55h9.9v-6.6H52.95v6.6h12.47v4.55H52.95v6.6h12.47v4.55H46.9
	v6.6h9.5v17.86h8.07v-17.86h97.06v17.86h8.07v-17.86h8.07v-6.6H177.66z M73.49,114.94h79.96v4.55H73.49
	C73.49,119.49,73.49,114.94,73.49,114.94z M73.49,126.09h79.96v4.55H73.49C73.49,130.64,73.49,126.09,73.49,126.09z"/>
</svg>
